<svg width="24" height="24" viewBox="0 0 24 24" fill="none" xmlns="http://www.w3.org/2000/svg">
<circle cx="12" cy="12" r="12" fill="white"/>
<g clip-path="url(#clip0_648_1352)">
<path d="M17.5452 6.90699C16.5077 6.43086 15.4129 6.09103 14.2882 5.89599C14.278 5.89427 14.2675 5.89575 14.2582 5.90023C14.2489 5.90471 14.2412 5.91196 14.2362 5.92099C14.0952 6.17099 13.9392 6.49799 13.8302 6.75399C12.6178 6.57 11.3846 6.57 10.1722 6.75399C10.0506 6.46881 9.91303 6.1907 9.76017 5.92099C9.75504 5.91206 9.74733 5.90489 9.73804 5.90043C9.72876 5.89597 9.71835 5.89442 9.70817 5.89599C8.58317 6.08999 7.48817 6.42999 6.45117 6.90699C6.4423 6.91038 6.43487 6.91674 6.43017 6.92499C4.35617 10.024 3.78717 13.047 4.06617 16.032C4.06717 16.046 4.07617 16.06 4.08717 16.069C5.29489 16.9636 6.64576 17.6466 8.08217 18.089C8.09231 18.0922 8.10321 18.0921 8.11328 18.0887C8.12335 18.0852 8.13207 18.0787 8.13817 18.07C8.44617 17.65 8.72017 17.207 8.95617 16.741C8.96109 16.7314 8.96277 16.7205 8.96097 16.7098C8.95917 16.6992 8.95398 16.6894 8.94617 16.682C8.941 16.6771 8.93487 16.6734 8.92817 16.671C8.49733 16.5054 8.08006 16.3065 7.68017 16.076C7.669 16.0697 7.66069 16.0593 7.65697 16.047C7.65325 16.0347 7.65439 16.0215 7.66017 16.01C7.66357 16.0025 7.66872 15.996 7.67517 15.991C7.75917 15.928 7.84317 15.862 7.92317 15.796C7.93024 15.7903 7.93872 15.7867 7.9477 15.7854C7.95668 15.7842 7.96583 15.7854 7.97417 15.789C10.5932 16.985 13.4282 16.985 16.0152 15.789C16.0238 15.7852 16.0333 15.7839 16.0426 15.7852C16.052 15.7864 16.0608 15.7901 16.0682 15.796C16.1482 15.862 16.2322 15.928 16.3162 15.991C16.323 15.996 16.3284 16.0025 16.3321 16.0102C16.3357 16.0178 16.3374 16.0261 16.337 16.0346C16.3366 16.043 16.3341 16.0512 16.3298 16.0584C16.3255 16.0656 16.3194 16.0717 16.3122 16.076C15.9132 16.3086 15.4954 16.5073 15.0632 16.67C15.0563 16.6725 15.05 16.6765 15.0448 16.6816C15.0396 16.6868 15.0357 16.6931 15.0332 16.7C15.0309 16.7067 15.0299 16.7137 15.0304 16.7208C15.031 16.7278 15.0329 16.7347 15.0362 16.741C15.2762 17.206 15.5512 17.65 15.8532 18.07C15.8593 18.0787 15.868 18.0852 15.8781 18.0887C15.8881 18.0921 15.899 18.0922 15.9092 18.089C17.348 17.648 18.701 16.9649 19.9102 16.069C19.9162 16.0648 19.9213 16.0593 19.9249 16.0529C19.9285 16.0465 19.9307 16.0393 19.9312 16.032C20.2652 12.581 19.3722 9.58299 17.5652 6.92599C17.5633 6.9216 17.5606 6.91764 17.5572 6.91437C17.5537 6.9111 17.5496 6.90858 17.5452 6.90699ZM9.34717 14.214C8.55817 14.214 7.90917 13.49 7.90917 12.602C7.90917 11.713 8.54617 10.989 9.34717 10.989C10.1542 10.989 10.7972 11.719 10.7852 12.602C10.7852 13.49 10.1482 14.214 9.34717 14.214ZM14.6632 14.214C13.8752 14.214 13.2252 13.49 13.2252 12.602C13.2252 11.713 13.8622 10.989 14.6632 10.989C15.4702 10.989 16.1142 11.719 16.1012 12.602C16.1012 13.49 15.4702 14.214 14.6632 14.214Z" fill="#191C22"/>
</g>
<defs>
<clipPath id="clip0_648_1352">
<rect width="16" height="16" fill="white" transform="translate(4 4)"/>
</clipPath>
</defs>
</svg>
