<svg width="40" height="40" viewBox="0 0 40 40" fill="none" xmlns="http://www.w3.org/2000/svg">
<circle cx="20" cy="20" r="12" fill="white"/>
<g clip-path="url(#clip0_439_1243)">
<path d="M25.5452 14.907C24.5077 14.4309 23.4129 14.091 22.2882 13.896C22.278 13.8943 22.2675 13.8958 22.2582 13.9002C22.2489 13.9047 22.2412 13.912 22.2362 13.921C22.0952 14.171 21.9392 14.498 21.8302 14.754C20.6178 14.57 19.3846 14.57 18.1722 14.754C18.0506 14.4688 17.913 14.1907 17.7602 13.921C17.755 13.9121 17.7473 13.9049 17.738 13.9004C17.7288 13.896 17.7183 13.8944 17.7082 13.896C16.5832 14.09 15.4882 14.43 14.4512 14.907C14.4423 14.9104 14.4349 14.9167 14.4302 14.925C12.3562 18.024 11.7872 21.047 12.0662 24.032C12.0672 24.046 12.0762 24.06 12.0872 24.069C13.2949 24.9636 14.6458 25.6466 16.0822 26.089C16.0923 26.0922 16.1032 26.0921 16.1133 26.0887C16.1233 26.0852 16.1321 26.0787 16.1382 26.07C16.4462 25.65 16.7202 25.207 16.9562 24.741C16.9611 24.7314 16.9628 24.7205 16.961 24.7098C16.9592 24.6992 16.954 24.6894 16.9462 24.682C16.941 24.6771 16.9349 24.6734 16.9282 24.671C16.4973 24.5054 16.0801 24.3065 15.6802 24.076C15.669 24.0697 15.6607 24.0593 15.657 24.047C15.6532 24.0347 15.6544 24.0215 15.6602 24.01C15.6636 24.0025 15.6687 23.996 15.6752 23.991C15.7592 23.928 15.8432 23.862 15.9232 23.796C15.9302 23.7903 15.9387 23.7867 15.9477 23.7854C15.9567 23.7842 15.9658 23.7854 15.9742 23.789C18.5932 24.985 21.4282 24.985 24.0152 23.789C24.0238 23.7852 24.0333 23.7839 24.0426 23.7852C24.052 23.7864 24.0608 23.7901 24.0682 23.796C24.1482 23.862 24.2322 23.928 24.3162 23.991C24.323 23.996 24.3284 24.0025 24.3321 24.0102C24.3357 24.0178 24.3374 24.0261 24.337 24.0346C24.3366 24.043 24.3341 24.0512 24.3298 24.0584C24.3255 24.0656 24.3194 24.0717 24.3122 24.076C23.9132 24.3086 23.4954 24.5073 23.0632 24.67C23.0563 24.6725 23.05 24.6765 23.0448 24.6816C23.0396 24.6868 23.0357 24.6931 23.0332 24.7C23.0309 24.7067 23.0299 24.7137 23.0304 24.7208C23.031 24.7278 23.0329 24.7347 23.0362 24.741C23.2762 25.206 23.5512 25.65 23.8532 26.07C23.8593 26.0787 23.868 26.0852 23.8781 26.0887C23.8881 26.0921 23.899 26.0922 23.9092 26.089C25.348 25.648 26.701 24.9649 27.9102 24.069C27.9162 24.0648 27.9213 24.0593 27.9249 24.0529C27.9285 24.0465 27.9307 24.0393 27.9312 24.032C28.2652 20.581 27.3722 17.583 25.5652 14.926C25.5633 14.9216 25.5606 14.9176 25.5572 14.9144C25.5537 14.9111 25.5496 14.9086 25.5452 14.907ZM17.3472 22.214C16.5582 22.214 15.9092 21.49 15.9092 20.602C15.9092 19.713 16.5462 18.989 17.3472 18.989C18.1542 18.989 18.7972 19.719 18.7852 20.602C18.7852 21.49 18.1482 22.214 17.3472 22.214ZM22.6632 22.214C21.8752 22.214 21.2252 21.49 21.2252 20.602C21.2252 19.713 21.8622 18.989 22.6632 18.989C23.4702 18.989 24.1142 19.719 24.1012 20.602C24.1012 21.49 23.4702 22.214 22.6632 22.214Z" fill="#191C22"/>
</g>
<defs>
<clipPath id="clip0_439_1243">
<rect width="16" height="16" fill="white" transform="translate(12 12)"/>
</clipPath>
</defs>
</svg>
