<svg width="24" height="24" viewBox="0 0 24 24" fill="none" xmlns="http://www.w3.org/2000/svg">
<circle cx="12" cy="12" r="12" fill="white"/>
<path d="M19.7618 7.29134C19.2052 7.53801 18.6072 7.70468 17.9785 7.78001C18.6272 7.39187 19.1125 6.78099 19.3438 6.06134C18.7344 6.42334 18.0674 6.67814 17.3718 6.81468C16.9041 6.31525 16.2846 5.98423 15.6094 5.87299C14.9342 5.76176 14.2412 5.87654 13.638 6.19951C13.0348 6.52249 12.555 7.03559 12.2733 7.65915C11.9915 8.28271 11.9235 8.98184 12.0798 9.64801C10.845 9.58601 9.63693 9.26504 8.53413 8.70595C7.43133 8.14685 6.45841 7.36212 5.67851 6.40268C5.41184 6.86268 5.25851 7.39601 5.25851 7.96401C5.25821 8.47534 5.38413 8.97884 5.6251 9.42983C5.86606 9.88083 6.21462 10.2654 6.63985 10.5493C6.1467 10.5337 5.66443 10.4004 5.23318 10.1607V10.2007C5.23313 10.9178 5.4812 11.6129 5.9353 12.168C6.3894 12.7231 7.02156 13.104 7.72451 13.246C7.26703 13.3698 6.7874 13.3881 6.32185 13.2993C6.52018 13.9164 6.90651 14.456 7.42676 14.8426C7.947 15.2292 8.57512 15.4435 9.22318 15.4553C8.12307 16.319 6.76444 16.7874 5.36585 16.7853C5.1181 16.7854 4.87056 16.7709 4.62451 16.742C6.04416 17.6548 7.69674 18.1392 9.38451 18.1373C15.0978 18.1373 18.2212 13.4053 18.2212 9.30134C18.2212 9.16801 18.2178 9.03334 18.2118 8.90001C18.8194 8.46066 19.3438 7.91661 19.7605 7.29334L19.7618 7.29134Z" fill="#191C22"/>
</svg>
