<svg width="20" height="20" viewBox="0 0 20 20" fill="none" xmlns="http://www.w3.org/2000/svg">
<path d="M9.9999 0.399902C4.6979 0.399902 0.399902 4.6979 0.399902 9.9999C0.399902 15.3019 4.6979 19.5999 9.9999 19.5999C15.3019 19.5999 19.5999 15.3019 19.5999 9.9999C19.5999 4.6979 15.3019 0.399902 9.9999 0.399902ZM7.6499 13.9789H5.7059V7.7229H7.6499V13.9789ZM6.6659 6.9549C6.0519 6.9549 5.6549 6.5199 5.6549 5.9819C5.6549 5.4329 6.0639 5.0109 6.6909 5.0109C7.3179 5.0109 7.7019 5.4329 7.7139 5.9819C7.7139 6.5199 7.3179 6.9549 6.6659 6.9549ZM14.7499 13.9789H12.8059V10.5119C12.8059 9.7049 12.5239 9.1569 11.8209 9.1569C11.2839 9.1569 10.9649 9.5279 10.8239 9.8849C10.7719 10.0119 10.7589 10.1919 10.7589 10.3709V13.9779H8.8139V9.7179C8.8139 8.9369 8.7889 8.2839 8.7629 7.7219H10.4519L10.5409 8.5909H10.5799C10.8359 8.1829 11.4629 7.5809 12.5119 7.5809C13.7909 7.5809 14.7499 8.4379 14.7499 10.2799V13.9789Z" fill="white"/>
</svg>
