<svg width="24" height="24" viewBox="0 0 24 24" fill="none" xmlns="http://www.w3.org/2000/svg">
<circle cx="12" cy="12" r="12" fill="white"/>
<path d="M12.0001 9.91718C10.8532 9.91718 9.91726 10.8531 9.91726 12C9.91726 13.1469 10.8532 14.0828 12.0001 14.0828C13.1469 14.0828 14.0829 13.1469 14.0829 12C14.0829 10.8531 13.1469 9.91718 12.0001 9.91718ZM18.2469 12C18.2469 11.1375 18.2548 10.2828 18.2063 9.42186C18.1579 8.42186 17.9298 7.53436 17.1985 6.80311C16.4657 6.0703 15.5798 5.84374 14.5798 5.7953C13.7173 5.74686 12.8626 5.75468 12.0016 5.75468C11.1391 5.75468 10.2844 5.74686 9.42351 5.7953C8.42351 5.84374 7.53601 6.07186 6.80476 6.80311C6.07195 7.53593 5.84539 8.42186 5.79695 9.42186C5.74851 10.2844 5.75632 11.1391 5.75632 12C5.75632 12.8609 5.74851 13.7172 5.79695 14.5781C5.84539 15.5781 6.07351 16.4656 6.80476 17.1969C7.53757 17.9297 8.42351 18.1562 9.42351 18.2047C10.286 18.2531 11.1407 18.2453 12.0016 18.2453C12.8641 18.2453 13.7188 18.2531 14.5798 18.2047C15.5798 18.1562 16.4673 17.9281 17.1985 17.1969C17.9313 16.4641 18.1579 15.5781 18.2063 14.5781C18.2563 13.7172 18.2469 12.8625 18.2469 12ZM12.0001 15.2047C10.2266 15.2047 8.79539 13.7734 8.79539 12C8.79539 10.2266 10.2266 8.7953 12.0001 8.7953C13.7735 8.7953 15.2048 10.2266 15.2048 12C15.2048 13.7734 13.7735 15.2047 12.0001 15.2047ZM15.336 9.41249C14.9219 9.41249 14.5876 9.07811 14.5876 8.66405C14.5876 8.24999 14.9219 7.91561 15.336 7.91561C15.7501 7.91561 16.0844 8.24999 16.0844 8.66405C16.0846 8.76237 16.0653 8.85975 16.0277 8.95061C15.9902 9.04147 15.935 9.12403 15.8655 9.19355C15.796 9.26307 15.7134 9.3182 15.6226 9.35577C15.5317 9.39334 15.4343 9.41261 15.336 9.41249Z" fill="#191C22"/>
</svg>
