<svg width="220" height="220" viewBox="0 0 220 220" fill="none" xmlns="http://www.w3.org/2000/svg">
<circle cx="110" cy="110" r="83" fill="#FBBD74" fill-opacity="0.6"/>
<path d="M97.072 129.772C97.3955 129.941 97.7588 130.018 98.1228 129.995C98.4867 129.972 98.8377 129.851 99.138 129.644L125.138 111.644C125.404 111.46 125.621 111.215 125.771 110.928C125.921 110.642 125.999 110.324 125.999 110C125.999 109.677 125.921 109.359 125.771 109.072C125.621 108.786 125.404 108.54 125.138 108.356L99.138 90.3563C98.8379 90.1487 98.4868 90.0271 98.1226 90.0047C97.7584 89.9824 97.3951 90.0601 97.0719 90.2294C96.7487 90.3987 96.4779 90.6532 96.289 90.9654C96.1001 91.2775 96.0001 91.6354 96 92.0003V128C95.9999 128.365 96.0998 128.724 96.2888 129.036C96.4777 129.348 96.7486 129.603 97.072 129.772Z" fill="white"/>
</svg>
