<svg width="220" height="220" viewBox="0 0 220 220" fill="none" xmlns="http://www.w3.org/2000/svg">
<path d="M9.9624 97C16.7785 47.8453 58.9696 10 110 10C161.03 10 203.221 47.8453 210.037 97" stroke="#9C9C9C"/>
<path d="M5.38668 101.65L17.2986 102.088L17.2575 103.207L6.97524 109.826L6.99112 109.394L17.0163 109.763L16.9693 111.042L5.05734 110.604L5.09851 109.484L15.4447 102.868L15.4288 103.3L5.33963 102.929L5.38668 101.65Z" fill="white"/>
<path d="M5.65681 123.618C5.58553 123.079 5.6224 122.585 5.76741 122.135C5.92299 121.684 6.16448 121.313 6.49188 121.023C6.81927 120.732 7.21561 120.556 7.6809 120.494C8.12503 120.436 8.53945 120.478 8.92415 120.62C9.31942 120.762 9.67051 121.017 9.97742 121.385C10.2843 121.753 10.5319 122.242 10.7201 122.852L11.7155 126.11L10.6369 126.253L9.72679 123.274C9.53998 122.675 9.28565 122.257 8.96379 122.019C8.64333 121.793 8.28747 121.705 7.8962 121.757C7.51552 121.807 7.21255 121.998 6.98732 122.329C6.76349 122.671 6.68302 123.079 6.74591 123.555C6.82279 124.137 7.01149 124.628 7.31201 125.03C7.62311 125.43 8.00622 125.723 8.46136 125.911C8.91649 126.098 9.40314 126.157 9.9213 126.089L12.0785 125.804C12.5861 125.737 12.9741 125.497 13.2424 125.085C13.5107 124.673 13.6057 124.171 13.5275 123.579C13.459 123.061 13.2667 122.623 12.9506 122.267C12.6451 121.909 12.2736 121.663 11.836 121.527L12.2803 120.371C12.6608 120.482 13.0215 120.687 13.3623 120.986C13.7045 121.296 13.9896 121.662 14.2175 122.083C14.456 122.504 14.6066 122.952 14.6695 123.428C14.752 124.052 14.7031 124.618 14.5228 125.126C14.3438 125.644 14.0551 126.064 13.6564 126.386C13.2698 126.717 12.7962 126.919 12.2358 126.993L6.39854 127.765L6.2413 126.575L7.93854 126.351L7.78712 126.549C7.45031 126.442 7.12876 126.248 6.82246 125.966C6.52814 125.693 6.27371 125.355 6.05918 124.953C5.85663 124.56 5.7225 124.115 5.65681 123.618Z" fill="white"/>
<path d="M8.18321 136.431L16.4599 134.185L16.7742 135.343L15.4153 135.712L15.5741 135.503C16.0184 135.593 16.4069 135.802 16.7395 136.132C17.0749 136.472 17.3194 136.925 17.473 137.491L17.6155 138.016L16.4574 138.331L16.2605 137.605C16.0984 137.008 15.7833 136.579 15.3149 136.32C14.8465 136.06 14.2726 136.022 13.5932 136.206L8.49745 137.589L8.18321 136.431Z" fill="white"/>
<path d="M11.9012 148.334L19.8537 145.124L20.3029 146.237L18.9973 146.764L19.1302 146.538C19.582 146.574 19.9925 146.736 20.3618 147.024C20.7352 147.322 21.0316 147.743 21.2512 148.287L21.4549 148.791L20.3421 149.241L20.0606 148.543C19.829 147.97 19.4653 147.582 18.9695 147.379C18.4737 147.177 17.8993 147.207 17.2465 147.471L12.3504 149.447L11.9012 148.334Z" fill="white"/>
<path d="M18.0519 162.037C17.7829 161.564 17.631 161.092 17.5962 160.621C17.5706 160.145 17.6548 159.711 17.8487 159.318C18.0427 158.925 18.3436 158.613 18.7515 158.381C19.1409 158.16 19.5407 158.043 19.9509 158.03C20.3703 158.012 20.7915 158.116 21.2144 158.342C21.6374 158.568 22.0508 158.928 22.4547 159.422L24.6029 162.066L23.6572 162.604L21.6932 160.187C21.2945 159.702 20.9015 159.41 20.514 159.311C20.1318 159.222 19.7692 159.275 19.4262 159.47C19.0924 159.66 18.8835 159.95 18.7994 160.342C18.7205 160.743 18.7998 161.152 19.0371 161.569C19.3272 162.079 19.687 162.463 20.1165 162.722C20.5553 162.975 21.0207 163.103 21.5129 163.106C22.0051 163.108 22.4783 162.98 22.9326 162.721L24.824 161.645C25.269 161.392 25.5383 161.024 25.6318 160.542C25.7254 160.059 25.6244 159.558 25.3291 159.039C25.0706 158.584 24.728 158.252 24.301 158.04C23.8833 157.824 23.4463 157.735 22.9897 157.774L22.9663 156.536C23.3607 156.495 23.772 156.55 24.2004 156.699C24.634 156.857 25.0358 157.089 25.4057 157.394C25.7848 157.693 26.0931 158.052 26.3304 158.469C26.6416 159.016 26.8092 159.559 26.8333 160.097C26.8627 160.645 26.7533 161.143 26.505 161.591C26.2713 162.043 25.9087 162.409 25.4173 162.688L20.2995 165.6L19.7062 164.557L21.1942 163.71L21.1283 163.95C20.7763 163.979 20.4053 163.92 20.0153 163.774C19.6398 163.631 19.277 163.414 18.927 163.123C18.5915 162.835 18.2998 162.473 18.0519 162.037Z" fill="white"/>
<path d="M27.1245 175.625C26.6593 175.014 26.4789 174.407 26.5833 173.805C26.6877 173.202 27.0709 172.649 27.7328 172.145L31.6154 169.189L30.6558 167.928L31.6106 167.201L31.8529 167.52C32.0726 167.808 32.3404 167.966 32.6564 167.994C32.9808 168.015 33.2873 167.916 33.5758 167.696L34.1487 167.26L34.8756 168.215L33.2971 169.416L34.4409 170.919L33.4862 171.646L32.3424 170.143L28.4598 173.1C28.2307 173.274 28.0528 173.463 27.9263 173.667C27.8083 173.864 27.7597 174.082 27.7807 174.321C27.8081 174.568 27.9284 174.832 28.1416 175.112C28.1933 175.18 28.259 175.257 28.3385 175.344C28.4181 175.431 28.488 175.505 28.5482 175.566L27.6953 176.216C27.5923 176.133 27.488 176.032 27.3826 175.911C27.2687 175.796 27.1827 175.701 27.1245 175.625Z" fill="white"/>
<path d="M35.7694 185.559C35.2043 184.992 34.8279 184.343 34.6401 183.612C34.4674 182.88 34.4908 182.141 34.7104 181.394C34.9299 180.648 35.3455 179.969 35.9571 179.359C36.5687 178.749 37.2366 178.338 37.9609 178.128C38.6928 177.91 39.4131 177.884 40.1219 178.051C40.8383 178.225 41.4714 178.588 42.0215 179.139C42.4584 179.577 42.7634 180.049 42.9363 180.554C43.1244 181.06 43.1992 181.573 43.161 182.093C43.1303 182.606 43.0053 183.1 42.786 183.575C42.5743 184.042 42.2873 184.457 41.9249 184.819C41.8494 184.894 41.7588 184.977 41.6531 185.067C41.5549 185.15 41.4492 185.233 41.336 185.316L36.2164 180.185L37.0092 179.394L41.6429 184.038L40.8962 183.969C41.3793 183.623 41.7003 183.204 41.8592 182.714C42.0332 182.224 42.0639 181.734 41.9513 181.244C41.8463 180.746 41.6054 180.308 41.2286 179.93C40.8519 179.553 40.4034 179.3 39.8831 179.171C39.3704 179.05 38.8461 179.076 38.3104 179.248C37.7823 179.414 37.2954 179.756 36.8499 180.276C36.329 180.721 35.9815 181.218 35.8074 181.769C35.6484 182.319 35.6365 182.858 35.7717 183.387C35.9145 183.922 36.178 184.383 36.5622 184.768C37.0067 185.213 37.4854 185.481 37.9982 185.572C38.511 185.663 39.0201 185.645 39.5256 185.518L39.8638 186.627C39.4715 186.777 39.0339 186.844 38.5512 186.829C38.0761 186.806 37.5935 186.692 37.1034 186.488C36.6285 186.284 36.1838 185.974 35.7694 185.559Z" fill="white"/>
<path d="M47.5864 195.739C46.9414 195.265 46.4746 194.685 46.1858 193.996C45.9034 193.299 45.8105 192.57 45.9071 191.807C46.0187 191.042 46.3269 190.316 46.8318 189.628C47.343 188.931 47.9436 188.419 48.6336 188.092C49.3321 187.771 50.0487 187.642 50.7833 187.705C51.5327 187.766 52.2342 188.036 52.8878 188.515C53.4811 188.951 53.9153 189.468 54.1903 190.067C54.4653 190.665 54.5752 191.282 54.5199 191.916L54.1663 192.073L57.3945 187.675L58.3619 188.385L51.1956 198.149L50.2282 197.439L51.3642 195.891L51.4148 196.147C50.808 196.469 50.1628 196.591 49.4793 196.513C48.8107 196.432 48.1797 196.174 47.5864 195.739ZM48.348 194.809C48.8123 195.15 49.3146 195.34 49.8548 195.379C50.4035 195.425 50.9306 195.328 51.4359 195.091C51.9561 194.851 52.3992 194.481 52.7653 193.982C53.1313 193.484 53.3477 192.954 53.4144 192.395C53.4961 191.833 53.4329 191.297 53.2249 190.787C53.0256 190.284 52.6937 189.861 52.2294 189.521C51.7736 189.186 51.2756 188.999 50.7355 188.96C50.1953 188.921 49.6726 189.02 49.1673 189.258C48.6706 189.502 48.236 189.878 47.8637 190.385C47.4976 190.884 47.2695 191.411 47.1792 191.967C47.1039 192.52 47.1616 193.045 47.3524 193.543C47.5518 194.046 47.8836 194.468 48.348 194.809Z" fill="white"/>
<path d="M71.6078 209.051C70.9232 208.781 70.3638 208.382 69.9295 207.855C69.5091 207.322 69.2736 206.713 69.2229 206.028L69.4661 205.935L68.7612 207.721L67.645 207.28L72.0917 196.014L73.2079 196.455L71.2049 201.53L71.1496 201.147C71.6668 200.766 72.2471 200.531 72.8905 200.44C73.5437 200.354 74.2127 200.446 74.8973 200.716C75.6513 201.014 76.2486 201.462 76.6891 202.06C77.1434 202.652 77.4159 203.327 77.5065 204.086C77.6071 204.848 77.4988 205.631 77.1816 206.434C76.8683 207.228 76.4127 207.874 75.8148 208.372C75.2307 208.864 74.5686 209.176 73.8284 209.308C73.102 209.434 72.3618 209.348 71.6078 209.051ZM71.9888 207.911C72.5246 208.123 73.0537 208.177 73.5761 208.073C74.1085 207.974 74.5838 207.743 75.0021 207.38C75.4342 207.012 75.7638 206.54 75.9909 205.964C76.222 205.379 76.3036 204.809 76.2356 204.255C76.1777 203.705 75.9882 203.211 75.6673 202.775C75.3563 202.343 74.933 202.021 74.3972 201.809C73.8614 201.598 73.3224 201.54 72.7801 201.635C72.2477 201.735 71.7605 201.967 71.3185 202.331C70.8903 202.69 70.5626 203.157 70.3355 203.732C70.1084 204.308 70.0268 204.878 70.0908 205.442C70.1686 206 70.368 206.497 70.6889 206.934C71.0197 207.374 71.453 207.7 71.9888 207.911Z" fill="white"/>
<path d="M82.6844 216.209C82.5181 216.17 82.3502 216.115 82.1808 216.043C82.0193 215.984 81.8627 215.904 81.7109 215.803L81.9635 214.712C82.065 214.746 82.1913 214.792 82.3424 214.849C82.5014 214.918 82.6641 214.972 82.8303 215.011C83.3395 215.129 83.7545 215.11 84.0752 214.954C84.3935 214.809 84.7523 214.465 85.1517 213.922L85.9704 212.798L85.701 213.82L84.2127 204.147L85.4752 204.439L86.6818 212.421L86.3545 212.345L90.9309 205.702L92.2247 206.002L86.2258 214.532C85.9657 214.899 85.6636 215.234 85.3196 215.538C84.986 215.844 84.6017 216.061 84.1666 216.191C83.7292 216.33 83.2351 216.336 82.6844 216.209Z" fill="white"/>
<path d="M108.203 216.267L107.908 204.351L112.003 204.25C112.781 204.23 113.467 204.368 114.062 204.663C114.655 204.947 115.119 205.362 115.453 205.909C115.797 206.444 115.978 207.075 115.996 207.8C116.017 208.642 115.81 209.368 115.377 209.976C114.955 210.584 114.368 211.02 113.617 211.284L116.52 216.062L115.017 216.099L111.979 211.036L112.855 211.511L109.368 211.597L109.482 216.236L108.203 216.267ZM109.338 210.397L112.217 210.326C112.729 210.314 113.174 210.206 113.554 210.005C113.932 209.793 114.224 209.503 114.428 209.135C114.632 208.757 114.728 208.317 114.716 207.816C114.703 207.314 114.586 206.885 114.364 206.528C114.142 206.171 113.836 205.901 113.448 205.718C113.059 205.525 112.608 205.435 112.096 205.448L109.217 205.519L109.338 210.397Z" fill="white"/>
<path d="M125.506 215.072L124.155 206.603L125.34 206.414L126.691 214.883L125.506 215.072ZM123.905 205.039L123.628 203.301L124.813 203.112L125.09 204.85L123.905 205.039Z" fill="white"/>
<path d="M139.631 212.179C138.822 212.413 138.055 212.43 137.33 212.229C136.606 212.028 135.976 211.655 135.44 211.111C134.902 210.556 134.514 209.869 134.277 209.049C134.039 208.229 134.001 207.446 134.163 206.7C134.324 205.954 134.659 205.307 135.167 204.76C135.672 204.203 136.329 203.807 137.138 203.573C137.65 203.424 138.159 203.377 138.663 203.431C139.167 203.485 139.639 203.62 140.08 203.837C140.517 204.043 140.882 204.326 141.175 204.686L140.286 205.526C139.953 205.145 139.537 204.877 139.037 204.722C138.537 204.567 138.015 204.568 137.472 204.725C136.929 204.883 136.477 205.163 136.117 205.568C135.764 205.959 135.529 206.432 135.412 206.988C135.303 207.53 135.336 208.104 135.511 208.708C135.683 209.303 135.962 209.805 136.347 210.215C136.74 210.612 137.191 210.887 137.702 211.039C138.222 211.188 138.754 211.184 139.297 211.026C139.84 210.869 140.277 210.593 140.606 210.197C140.946 209.799 141.157 209.338 141.239 208.815L142.448 209.081C142.39 209.531 142.233 209.965 141.976 210.384C141.72 210.802 141.393 211.169 140.996 211.484C140.598 211.799 140.143 212.031 139.631 212.179Z" fill="white"/>
<path d="M150.609 208.177L145.556 197.169L146.647 196.669L150.184 204.376L149.685 204.516L152.033 198.087L153.444 197.439L151.825 201.967L157.298 205.107L155.989 205.707L150.88 202.824L151.605 202.561L150.435 205.88L150.384 204.812L151.699 207.676L150.609 208.177Z" fill="white"/>
<path d="M166.549 203.992C166.406 204.085 166.249 204.167 166.08 204.238C165.925 204.313 165.758 204.37 165.58 204.409L164.972 203.468C165.068 203.419 165.188 203.36 165.334 203.291C165.495 203.226 165.647 203.146 165.79 203.054C166.229 202.77 166.505 202.459 166.616 202.12C166.733 201.79 166.736 201.293 166.624 200.629L166.386 199.259L166.932 200.163L158.949 194.502L160.037 193.798L166.61 198.485L166.328 198.668L164.74 190.759L165.856 190.038L167.809 200.282C167.892 200.724 167.922 201.174 167.901 201.633C167.889 202.085 167.777 202.512 167.568 202.915C167.364 203.326 167.024 203.685 166.549 203.992Z" fill="white"/>
<path d="M188.186 181.816C187.618 182.438 186.987 182.908 186.291 183.227C185.588 183.539 184.86 183.704 184.106 183.723C183.351 183.727 182.601 183.584 181.855 183.294C181.109 183.003 180.406 182.556 179.744 181.952C179.082 181.348 178.572 180.687 178.215 179.971C177.858 179.255 177.647 178.521 177.582 177.769C177.525 177.009 177.623 176.269 177.877 175.547C178.124 174.819 178.531 174.143 179.099 173.521C179.645 172.922 180.241 172.483 180.885 172.205C181.536 171.918 182.179 171.768 182.812 171.755C183.445 171.726 184.011 171.809 184.511 172.005L184.148 173.234C183.411 172.965 182.68 172.92 181.956 173.096C181.232 173.273 180.575 173.684 179.985 174.33C179.395 174.976 179.024 175.691 178.871 176.476C178.718 177.261 178.788 178.046 179.081 178.833C179.365 179.613 179.874 180.337 180.607 181.006C181.332 181.668 182.099 182.108 182.909 182.328C183.72 182.548 184.509 182.546 185.276 182.322C186.036 182.091 186.71 181.653 187.3 181.007C187.825 180.431 188.17 179.8 188.335 179.113C188.507 178.418 188.499 177.739 188.31 177.076C188.113 176.405 187.731 175.811 187.164 175.293L186.68 174.851L187.493 174.814L184.322 178.288L183.495 177.533L187.141 173.539L187.873 174.208C188.448 174.733 188.887 175.321 189.188 175.971C189.482 176.615 189.641 177.279 189.664 177.965C189.688 178.651 189.575 179.329 189.327 179.997C189.077 180.65 188.697 181.256 188.186 181.816Z" fill="white"/>
<path d="M198.526 168.379C198.09 169.05 197.533 169.554 196.857 169.89C196.177 170.211 195.449 170.342 194.673 170.283C193.898 170.224 193.148 169.959 192.423 169.488C191.699 169.017 191.158 168.449 190.802 167.784C190.436 167.114 190.261 166.415 190.276 165.687C190.297 164.95 190.52 164.255 190.945 163.602C191.282 163.083 191.68 162.687 192.138 162.412C192.594 162.123 193.08 161.943 193.597 161.872C194.105 161.795 194.614 161.815 195.124 161.93C195.625 162.04 196.09 162.234 196.52 162.513C196.609 162.571 196.709 162.643 196.819 162.727C196.921 162.806 197.024 162.892 197.129 162.986L193.177 169.062L192.238 168.451L195.815 162.952L195.903 163.696C195.463 163.296 194.987 163.069 194.475 163.016C193.959 162.948 193.474 163.02 193.017 163.232C192.552 163.439 192.174 163.766 191.884 164.213C191.593 164.66 191.439 165.151 191.421 165.687C191.409 166.214 191.544 166.721 191.825 167.209C192.096 167.691 192.533 168.096 193.134 168.423C193.678 168.84 194.237 169.076 194.811 169.132C195.383 169.173 195.913 169.072 196.401 168.83C196.895 168.579 197.29 168.225 197.587 167.769C197.93 167.241 198.093 166.717 198.075 166.197C198.057 165.676 197.933 165.182 197.703 164.714L198.717 164.152C198.946 164.505 199.103 164.919 199.189 165.394C199.265 165.864 199.254 166.359 199.157 166.881C199.056 167.388 198.846 167.888 198.526 168.379Z" fill="white"/>
<path d="M204.162 158.197L196.414 154.521L196.929 153.436L198.201 154.04L197.944 154.095C197.665 153.739 197.506 153.327 197.468 152.86C197.434 152.383 197.543 151.88 197.795 151.35L198.028 150.859L199.112 151.373L198.79 152.053C198.524 152.611 198.485 153.142 198.672 153.644C198.859 154.146 199.271 154.548 199.907 154.849L204.677 157.113L204.162 158.197Z" fill="white"/>
<path d="M209.825 144.532L200.635 145.06L201.051 143.782L209.073 143.429L208.939 143.84L202.664 138.821L203.084 137.528L210.196 143.391L209.825 144.532Z" fill="white"/>
<path d="M213.718 130.283C213.625 130.819 213.443 131.28 213.17 131.666C212.887 132.05 212.546 132.332 212.147 132.513C211.748 132.693 211.317 132.743 210.855 132.663C210.413 132.587 210.03 132.423 209.706 132.172C209.37 131.919 209.111 131.572 208.928 131.129C208.745 130.686 208.654 130.145 208.656 129.507L208.676 126.1L209.748 126.285L209.73 129.4C209.73 130.028 209.848 130.503 210.084 130.825C210.323 131.137 210.636 131.326 211.025 131.393C211.404 131.459 211.75 131.367 212.063 131.118C212.379 130.858 212.577 130.492 212.659 130.019C212.759 129.441 212.725 128.916 212.558 128.443C212.38 127.969 212.102 127.574 211.723 127.26C211.344 126.945 210.897 126.744 210.382 126.655L208.238 126.285C207.733 126.197 207.292 126.311 206.913 126.624C206.534 126.937 206.294 127.389 206.192 127.977C206.103 128.492 206.157 128.967 206.352 129.401C206.537 129.834 206.818 130.18 207.196 130.44L206.427 131.411C206.097 131.192 205.814 130.889 205.578 130.501C205.343 130.104 205.18 129.67 205.088 129.199C204.986 128.727 204.975 128.254 205.057 127.781C205.164 127.161 205.379 126.635 205.703 126.204C206.028 125.762 206.429 125.447 206.905 125.259C207.373 125.058 207.885 125.006 208.442 125.102L214.244 126.104L214.04 127.286L212.353 126.995L212.556 126.852C212.846 127.053 213.096 127.334 213.304 127.695C213.503 128.043 213.646 128.441 213.731 128.889C213.807 129.324 213.803 129.789 213.718 130.283Z" fill="white"/>
<path d="M215.102 117.339L206.536 116.933L206.592 115.734L215.159 116.14L215.102 117.339ZM204.953 116.858L203.195 116.775L203.252 115.576L205.01 115.659L204.953 116.858Z" fill="white"/>
<path d="M215.226 103.903C215.28 104.723 215.12 105.455 214.746 106.1C214.372 106.745 213.838 107.229 213.143 107.553L212.597 106.579C213.103 106.3 213.495 105.932 213.775 105.475C214.054 105.007 214.175 104.507 214.14 103.975C214.106 103.464 213.955 103.041 213.687 102.707C213.408 102.372 213.066 102.219 212.662 102.246C212.364 102.265 212.135 102.366 211.976 102.548C211.807 102.73 211.681 102.936 211.601 103.166C211.52 103.396 211.464 103.597 211.432 103.771L211.163 105.023C210.992 105.826 210.716 106.416 210.335 106.794C209.954 107.172 209.497 107.379 208.965 107.414C208.465 107.448 208.02 107.349 207.63 107.118C207.241 106.888 206.93 106.561 206.699 106.138C206.468 105.715 206.334 105.238 206.299 104.705C206.251 103.982 206.399 103.314 206.743 102.704C207.076 102.083 207.57 101.628 208.224 101.338L208.771 102.328C208.306 102.573 207.954 102.906 207.715 103.328C207.464 103.741 207.355 104.192 207.388 104.681C207.42 105.16 207.568 105.535 207.832 105.806C208.095 106.077 208.414 106.2 208.786 106.176C209.074 106.156 209.297 106.067 209.458 105.906C209.618 105.746 209.735 105.567 209.807 105.37C209.879 105.162 209.931 104.982 209.963 104.83L210.284 103.382C210.44 102.677 210.718 102.118 211.119 101.707C211.518 101.285 212.005 101.055 212.58 101.016C213.048 100.985 213.478 101.09 213.868 101.331C214.257 101.562 214.574 101.899 214.817 102.343C215.05 102.787 215.186 103.307 215.226 103.903Z" fill="white"/>
</svg>
